#!OML:ASF F:\VICON\USERDATA\INSTALL\rory3\rory3.ASF
:FULLY-SPECIFIED
:DEGREES
451
root 0.970162 17.7668 -16.8818 3.17696 -1.65696 -0.108503
lowerback 3.71593 -0.518951 -0.387652
upperback -0.616804 -0.650272 2.27187
thorax -2.68754 -0.300891 2.59481
lowerneck -19.8759 -3.57306 -9.52818
upperneck 15.8817 -3.63085 7.40803
head 8.52899 -1.52686 3.60361
rclavicle -9.88954e-015 -3.18055e-015
rhumerus -37.8255 -15.5867 -73.9234
rradius 40.1805
rwrist 0.35195
rhand -15.9152 18.428
rfingers 7.12502
rthumb 10.282 -11.3007
lclavicle -9.88954e-015 -3.18055e-015
lhumerus -36.9216 8.86796 79.9183
lradius 37.645
lwrist -1.54498
lhand -18.1774 23.8864
lfingers 7.12502
lthumb 8.09909 53.7112
rfemur -3.64364 3.7716 24.9694
rtibia 17.5181
rfoot -10.9423 -11.4104
rtoes 4.56242
lfemur -7.12439 -5.15769 -19.6619
ltibia 21.2763
lfoot -13.2136 6.41849
ltoes -0.496485
452
root 0.973124 17.7703 -16.8801 3.23608 -1.90961 -0.149554
lowerback 3.68673 -0.451358 -0.39938
upperback -0.59782 -0.560532 2.29877
thorax -2.6555 -0.256138 2.62336
lowerneck -20.0994 -3.57835 -9.49958
upperneck 15.9564 -3.61204 7.32945
head 8.58933 -1.52069 3.57472
rclavicle -4.62174e-015 1.82882e-014
rhumerus -37.7075 -15.6293 -73.9177
rradius 40.0856
rwrist 0.479692
rhand -15.6157 18.6492
rfingers 7.12502
rthumb 10.5709 -11.0649
lclavicle -4.62174e-015 1.82882e-014
lhumerus -36.7414 9.09728 79.8554
lradius 37.3146
lwrist -1.91966
lhand -17.6657 23.2145
lfingers 7.12502
lthumb 8.59291 53.0196
rfemur -3.71089 3.9033 24.9814
rtibia 17.5189
rfoot -10.9782 -11.2704
rtoes 4.48514
lfemur -7.22338 -4.96316 -19.6411
ltibia 21.3032
lfoot -13.1913 6.51587
ltoes -0.689565
453
root 0.977496 17.7721 -16.882 3.26323 -1.9631 -0.0810386
lowerback 3.80619 -0.45339 -0.514761
upperback -0.681798 -0.56631 2.30033
thorax -2.80789 -0.255295 2.69277
lowerneck -20.0318 -3.55834 -9.35187
upperneck 15.8483 -3.58842 7.13052
head 8.53187 -1.52181 3.48317
rclavicle -3.23025e-015 2.54444e-014
rhumerus -37.7639 -15.5476 -73.8916
rradius 40.0459
rwrist 0.526479
rhand -15.342 18.8278
rfingers 7.12502
rthumb 10.8349 -10.8727
lclavicle -3.23025e-015 2.54444e-014
lhumerus -36.8128 9.1434 79.8416
lradius 37.2281
lwrist -1.99584
lhand -17.3645 23.176
lfingers 7.12502
lthumb 8.88358 52.969
rfemur -3.79784 3.84192 24.8768
rtibia 17.5707
rfoot -11.0086 -11.1478
rtoes 5.00662
lfemur -7.30843 -4.87166 -19.7356
ltibia 21.329
lfoot -13.1085 6.49059
ltoes -1.01407
454
root 0.979249 17.7725 -16.886 3.22518 -1.92137 -0.103112
lowerback 3.95424 -0.503061 -0.516302
upperback -0.725095 -0.630473 2.31499
thorax -2.93247 -0.28572 2.71529
lowerneck -19.9499 -3.5359 -9.28548
upperneck 15.729 -3.55975 7.03422
head 8.47144 -1.51498 3.44136
rclavicle -1.23743e-014 7.95139e-016
rhumerus -37.7922 -15.3871 -73.9437
rradius 40.0761
rwrist 0.444671
rhand -15.2161 18.7019
rfingers 7.12502
rthumb 10.9563 -10.9922
lclavicle -1.23743e-014 7.95139e-016
lhumerus -36.8676 9.093 79.8151
lradius 37.2136
lwrist -1.90323
lhand -17.1316 23.2847
lfingers 7.12502
lthumb 9.10838 53.068
rfemur -3.79493 3.85437 24.8867
rtibia 17.6215
rfoot -11.1106 -11.0915
rtoes 6.18668
lfemur -7.27661 -4.80598 -19.7009
ltibia 21.3577
lfoot -13.1491 6.33008
ltoes -1.11832
455
root 0.9793 17.7715 -16.8901 3.20184 -2.01402 -0.258874
lowerback 4.06257 -0.494425 -0.382263
upperback -0.737574 -0.610244 2.34224
thorax -3.00843 -0.276965 2.66833
lowerneck -20.0393 -3.52647 -9.33026
upperneck 15.7619 -3.54282 7.11278
head 8.49895 -1.50015 3.47843
rclavicle 1.54058e-015 -1.19271e-014
rhumerus -37.7241 -15.3228 -74.0232
rradius 39.9976
rwrist 0.474461
rhand -15.3052 18.4863
rfingers 7.12502
rthumb 10.8704 -11.2124
lclavicle 1.54058e-015 -1.19271e-014
lhumerus -36.8576 8.9866 79.7994
lradius 37.1361
lwrist -1.84857
lhand -17.1174 23.1434
lfingers 7.12502
lthumb 9.12206 52.9261
rfemur -3.77196 4.06174 25.0498
rtibia 17.6342
rfoot -11.2208 -11.0692
rtoes 7.16876
lfemur -7.22492 -4.71514 -19.5186
ltibia 21.4022
lfoot -13.2242 6.29603
ltoes -0.865429
456
root 0.981672 17.7669 -16.8937 3.20457 -2.05536 -0.360639
lowerback 4.20087 -0.50174 -0.291162
upperback -0.841876 -0.611673 2.35344
thorax -3.19474 -0.276982 2.63189
lowerneck -19.7806 -3.48773 -9.40463
upperneck 15.6745 -3.5098 7.21574
head 8.42491 -1.48268 3.53018
rclavicle -5.61567e-015 1.66979e-014
rhumerus -37.867 -15.257 -74.0191
rradius 39.927
rwrist 0.712552
rhand -15.4504 18.4858
rfingers 7.12502
rthumb 10.7303 -11.2201
lclavicle -5.61567e-015 1.66979e-014
lhumerus -37.0151 8.92861 79.7646
lradius 37.0539
lwrist -1.92725
lhand -17.2032 23.1306
lfingers 7.12502
lthumb 9.03922 52.9169
rfemur -3.77425 4.05743 25.1725
rtibia 17.6094
rfoot -11.1039 -11.1402
rtoes 6.09284
lfemur -7.24921 -4.68896 -19.4044
ltibia 21.4569
lfoot -13.2431 6.30206
ltoes -0.723634
457
root 0.984219 17.7681 -16.894 3.24543 -2.00791 -0.365026
lowerback 4.29678 -0.544808 -0.265848
upperback -0.955347 -0.665114 2.34098
thorax -3.3639 -0.30211 2.61126
lowerneck -19.5975 -3.45837 -9.48963
upperneck 15.5859 -3.4816 7.32917
head 8.36443 -1.46572 3.5863
rclavicle 1.11319e-014 2.38542e-015
rhumerus -38.0611 -15.1076 -74.0279
rradius 39.9497
rwrist 0.747042
rhand -15.3984 18.2785
rfingers 7.12502
rthumb 10.7804 -11.4248
lclavicle 1.11319e-014 2.38542e-015
lhumerus -37.1829 8.99255 79.6902
lradius 37.0246
lwrist -2.15227
lhand -17.0665 22.6571
lfingers 7.12502
lthumb 9.17116 52.4377
rfemur -3.81377 3.96888 25.1839
rtibia 17.58
rfoot -10.9637 -11.1965
rtoes 5.24108
lfemur -7.36772 -4.64816 -19.3951
ltibia 21.5003
lfoot -13.2077 6.24638
ltoes -1.10501
458
root 0.987855 17.7692 -16.8882 3.2613 -2.02718 -0.273092
lowerback 4.23363 -0.567748 -0.381706
upperback -0.960485 -0.702258 2.35426
thorax -3.33038 -0.31843 2.69198
lowerneck -19.6447 -3.44881 -9.5358
upperneck 15.5706 -3.44768 7.31844
head 8.36503 -1.45266 3.59438
rclavicle -8.05078e-015 1.66979e-014
rhumerus -38.0444 -15.0159 -73.9899
rradius 39.8621
rwrist 0.78057
rhand -15.3069 18.1686
rfingers 7.12502
rthumb 10.8687 -11.5301
lclavicle -8.05078e-015 1.66979e-014
lhumerus -37.3144 9.08559 79.726
lradius 37.1495
lwrist -2.39569
lhand -16.9146 22.3541
lfingers 7.12502
lthumb 9.31775 52.1282
rfemur -3.81445 3.90872 25.0616
rtibia 17.5995
rfoot -10.936 -11.1358
rtoes 5.11011
lfemur -7.37911 -4.56611 -19.512
ltibia 21.4667
lfoot -13.1699 6.19758
ltoes -1.17333
